<svg width="40" height="26" viewBox="0 0 40 26" fill="none" xmlns="http://www.w3.org/2000/svg"><g filter="url(#filter0_dd_176_74)" clip-path="url(#clip0_176_74)"><path d="M35.311.097H4.689C2.152.097.096 2.167.096 4.719v16.563c0 2.553 2.056 4.622 4.593 4.622h30.622c2.537 0 4.593-2.07 4.593-4.622V4.719c0-2.553-2.056-4.622-4.593-4.622z" fill="#fff"/><path d="M12.971 9.62c.266-.335.446-.784.399-1.242-.39.02-.863.258-1.138.593-.247.286-.465.754-.408 1.193.436.038.872-.22 1.147-.544zm.394.63c-.634-.038-1.173.362-1.476.362-.302 0-.766-.343-1.267-.334a1.87 1.87 0 00-1.59.972c-.68 1.181-.179 2.933.483 3.895.322.476.71 1 1.22.981.483-.019.672-.314 1.258-.314.587 0 .757.314 1.268.305.53-.01.86-.477 1.182-.953.37-.542.52-1.066.53-1.095-.01-.01-1.022-.4-1.031-1.572-.01-.98.794-1.447.832-1.476-.454-.676-1.163-.752-1.41-.77zm5.518-1.328c1.378 0 2.337.956 2.337 2.347 0 1.396-.979 2.357-2.371 2.357h-1.525v2.44h-1.102V8.923h2.661zm-1.56 3.773h1.265c.96 0 1.506-.52 1.506-1.42 0-.902-.547-1.417-1.5-1.417h-1.27v2.837zm4.185 1.891c0-.91.694-1.47 1.924-1.54l1.417-.084v-.4c0-.58-.389-.926-1.038-.926-.615 0-1 .296-1.093.762h-1.003c.059-.94.856-1.634 2.135-1.634 1.255 0 2.056.668 2.056 1.713v3.59h-1.018v-.857h-.025c-.3.58-.954.946-1.633.946-1.014 0-1.722-.634-1.722-1.57zm3.34-.47v-.411l-1.274.08c-.634.044-.993.326-.993.772 0 .455.373.752.944.752.743 0 1.324-.515 1.324-1.193zm2.02 3.867v-.867c.079.02.256.02.344.02.492 0 .758-.208.92-.742 0-.01.094-.317.094-.322l-1.87-5.214h1.151l1.31 4.238h.019l1.309-4.238h1.121l-1.938 5.481c-.443 1.263-.955 1.669-2.027 1.669-.089 0-.354-.01-.433-.025z" fill="#000008"/><path d="M4.689.5h30.622c2.31 0 4.189 1.886 4.189 4.219v16.563c0 2.332-1.878 4.218-4.189 4.218H4.689C2.379 25.5.5 23.614.5 21.282V4.719C.5 2.386 2.378.5 4.689.5z" stroke="#D6DCE5"/></g><defs><clipPath id="clip0_176_74"><path fill="#fff" d="M0 0h40v26H0z"/></clipPath><filter id="filter0_dd_176_74" x="-7.684" y="-3.842" width="55.368" height="41.368" filterUnits="userSpaceOnUse" color-interpolation-filters="sRGB"><feFlood flood-opacity="0" result="BackgroundImageFix"/><feColorMatrix in="SourceAlpha" values="0 0 0 0 0 0 0 0 0 0 0 0 0 0 0 0 0 0 127 0" result="hardAlpha"/><feOffset dy=".384"/><feGaussianBlur stdDeviation="1.921"/><feColorMatrix values="0 0 0 0 0.717647 0 0 0 0 0.717647 0 0 0 0 0.717647 0 0 0 0.08 0"/><feBlend in2="BackgroundImageFix" result="effect1_dropShadow_176_74"/><feColorMatrix in="SourceAlpha" values="0 0 0 0 0 0 0 0 0 0 0 0 0 0 0 0 0 0 127 0" result="hardAlpha"/><feOffset dy="3.842"/><feGaussianBlur stdDeviation="3.842"/><feColorMatrix values="0 0 0 0 0.717647 0 0 0 0 0.717647 0 0 0 0 0.717647 0 0 0 0.08 0"/><feBlend in2="effect1_dropShadow_176_74" result="effect2_dropShadow_176_74"/><feBlend in="SourceGraphic" in2="effect2_dropShadow_176_74" result="shape"/></filter></defs></svg>