<svg xmlns="http://www.w3.org/2000/svg" xmlns:xlink="http://www.w3.org/1999/xlink" xmlns:svgjs="http://svgjs.com/svgjs" width="512" height="512"><svg width="512" height="512" viewBox="0 0 512 512" xmlns="http://www.w3.org/2000/svg" fill-rule="evenodd" clip-rule="evenodd" stroke-linejoin="round" stroke-miterlimit="2"><path fill="#fff" d="M0 0h512v512H0z"/><path d="M137 150h-31c-34.771 0-63 28.229-63 63v196c0 34.771 28.229 63 63 63h300c34.771 0 63-28.229 63-63V213c0-34.771-28.229-63-63-63h-31v-47c0-34.771-28.229-63-63-63H200c-34.771 0-63 28.229-63 63v47zm238 22h31c22.629 0 41 18.371 41 41v196c0 22.629-18.371 41-41 41H106c-22.629 0-41-18.371-41-41V213c0-22.629 18.371-41 41-41h31v50.084c-11.123 4.392-19 15.241-19 27.916 0 16.557 13.443 30 30 30 16.557 0 30-13.443 30-30 0-12.675-7.877-23.524-19-27.916V172h194v50.084c-11.123 4.392-19 15.241-19 27.916 0 16.557 13.443 30 30 30 16.557 0 30-13.443 30-30 0-12.675-7.877-23.524-19-27.916V172zm-22-22v-47c0-22.629-18.371-41-41-41H200c-22.629 0-41 18.371-41 41v47h194z"/></svg><style>@media (prefers-color-scheme:light){:root{filter:none}}</style></svg>