<svg xmlns="http://www.w3.org/2000/svg" xmlns:xlink="http://www.w3.org/1999/xlink" xmlns:svgjs="http://svgjs.com/svgjs" width="250" height="250"><svg width="250" height="250" viewBox="0 0 250 250" fill="none" xmlns="http://www.w3.org/2000/svg"><path fill="#41B2D4" d="M0 0h250v250H0z"/><circle cx="125" cy="125" r="97" fill="#2A4968"/><path d="M123.03 125c0 6.859-1.258 12.757-3.774 17.692-2.516 4.914-5.966 8.7-10.348 11.356-4.361 2.635-9.32 3.952-14.877 3.952-5.578 0-10.558-1.317-14.94-3.952-4.362-2.656-7.8-6.452-10.317-11.387C66.258 137.725 65 131.838 65 125c0-6.859 1.258-12.746 3.774-17.661 2.516-4.935 5.955-8.72 10.317-11.355C83.473 93.328 88.453 92 94.03 92c5.556 0 10.516 1.328 14.877 3.984 4.382 2.635 7.832 6.42 10.348 11.355 2.516 4.915 3.774 10.802 3.774 17.661zm-9.624 0c0-5.228-.849-9.63-2.548-13.206-1.677-3.597-3.984-6.316-6.92-8.156-2.914-1.861-6.217-2.792-9.907-2.792-3.712 0-7.025.931-9.94 2.792-2.914 1.84-5.22 4.559-6.919 8.156-1.677 3.576-2.516 7.978-2.516 13.206s.839 9.641 2.516 13.238c1.699 3.576 4.005 6.294 6.92 8.156 2.914 1.84 6.227 2.76 9.939 2.76 3.69 0 6.993-.92 9.907-2.76 2.936-1.862 5.243-4.58 6.92-8.156 1.699-3.597 2.548-8.01 2.548-13.238zm21.741 32.122V92.878h9.719v30.679h.787l27.018-30.679h12.235l-25.98 28.922L185 157.122h-11.7l-20.822-28.703-7.612 8.721v19.982h-9.719z" fill="#F7F7F7"/></svg><style>@media (prefers-color-scheme:light){:root{filter:none}}</style></svg>