<svg width="40" height="26" viewBox="0 0 40 26" fill="none" xmlns="http://www.w3.org/2000/svg"><g filter="url(#filter0_dd_176_44)" clip-path="url(#clip0_176_44)"><path d="M35.385 0H4.615C2.066 0 0 2.085 0 4.657v16.686C0 23.915 2.066 26 4.615 26h30.77C37.934 26 40 23.915 40 21.343V4.657C40 2.085 37.934 0 35.385 0z" fill="#fff"/><path d="M19.206 16.052h-.899V9.06h2.383a2.15 2.15 0 011.54.604c.43.402.645.894.645 1.474 0 .595-.215 1.086-.645 1.484-.417.398-.932.595-1.54.595h-1.484v2.836zm0-6.132v2.44h1.502a1.2 1.2 0 00.89-.361 1.185 1.185 0 000-1.704 1.166 1.166 0 00-.89-.37h-1.502V9.92zm6.019 1.189c.665 0 1.189.178 1.573.534.384.355.576.842.576 1.46v2.949h-.857v-.665h-.037c-.37.548-.866.82-1.484.82-.53 0-.97-.155-1.325-.469a1.495 1.495 0 01-.534-1.17c0-.496.188-.89.562-1.18.375-.294.875-.44 1.498-.44.534 0 .974.099 1.315.295v-.206a1.02 1.02 0 00-.37-.795 1.268 1.268 0 00-.87-.328c-.5 0-.899.21-1.189.637l-.791-.497c.435-.632 1.081-.945 1.933-.945zm-1.16 3.473c0 .234.098.43.299.585a1.1 1.1 0 00.697.234c.38 0 .716-.14 1.011-.421.295-.28.445-.609.445-.988-.28-.22-.67-.332-1.17-.332-.365 0-.67.089-.913.262-.248.183-.37.403-.37.66zm8.195-3.318l-2.995 6.89h-.927l1.114-2.41-1.975-4.48h.978l1.423 3.435h.019l1.385-3.435h.978z" fill="#3C4043"/><path d="M15.631 12.65c0-.294-.026-.574-.075-.844H11.79v1.545h2.17a1.858 1.858 0 01-.806 1.244v1.003h1.292c.754-.698 1.186-1.73 1.186-2.949z" fill="#4285F4"/><path d="M13.154 14.595c-.36.243-.822.385-1.364.385-1.046 0-1.933-.705-2.251-1.655H8.207v1.033a4.01 4.01 0 003.583 2.209c1.083 0 1.993-.357 2.655-.97l-1.29-1.002z" fill="#34A853"/><path d="M9.413 12.557c0-.266.045-.524.126-.767v-1.033H8.206a3.989 3.989 0 00-.426 1.8 4 4 0 00.426 1.801l1.333-1.033a2.418 2.418 0 01-.126-.768z" fill="#FABB05"/><path d="M11.79 10.136c.591 0 1.12.203 1.539.601l1.144-1.143a3.852 3.852 0 00-2.683-1.045 4.01 4.01 0 00-3.583 2.208l1.332 1.034c.317-.95 1.205-1.655 2.251-1.655z" fill="#E94235"/><path d="M4.689.5h30.622c2.31 0 4.189 1.886 4.189 4.219v16.563c0 2.332-1.878 4.218-4.189 4.218H4.689C2.379 25.5.5 23.614.5 21.282V4.719C.5 2.386 2.378.5 4.689.5z" stroke="#D6DCE5"/></g><defs><clipPath id="clip0_176_44"><path fill="#fff" d="M0 0h40v26H0z"/></clipPath><filter id="filter0_dd_176_44" x="-7.684" y="-3.842" width="55.368" height="41.368" filterUnits="userSpaceOnUse" color-interpolation-filters="sRGB"><feFlood flood-opacity="0" result="BackgroundImageFix"/><feColorMatrix in="SourceAlpha" values="0 0 0 0 0 0 0 0 0 0 0 0 0 0 0 0 0 0 127 0" result="hardAlpha"/><feOffset dy=".384"/><feGaussianBlur stdDeviation="1.921"/><feColorMatrix values="0 0 0 0 0.717647 0 0 0 0 0.717647 0 0 0 0 0.717647 0 0 0 0.08 0"/><feBlend in2="BackgroundImageFix" result="effect1_dropShadow_176_44"/><feColorMatrix in="SourceAlpha" values="0 0 0 0 0 0 0 0 0 0 0 0 0 0 0 0 0 0 127 0" result="hardAlpha"/><feOffset dy="3.842"/><feGaussianBlur stdDeviation="3.842"/><feColorMatrix values="0 0 0 0 0.717647 0 0 0 0 0.717647 0 0 0 0 0.717647 0 0 0 0.08 0"/><feBlend in2="effect1_dropShadow_176_44" result="effect2_dropShadow_176_44"/><feBlend in="SourceGraphic" in2="effect2_dropShadow_176_44" result="shape"/></filter></defs></svg>