<svg width="40" height="26" viewBox="0 0 40 26" fill="none" xmlns="http://www.w3.org/2000/svg"><g filter="url(#filter0_dd_176_55)" clip-path="url(#clip0_176_55)"><path d="M35.385 0H4.615C2.066 0 0 2.085 0 4.657v16.686C0 23.915 2.066 26 4.615 26h30.77C37.934 26 40 23.915 40 21.343V4.657C40 2.085 37.934 0 35.385 0z" fill="#fff"/><path d="M22.89 7.652h-5.87v10.533h5.87V7.652z" fill="#FF5F00"/><path d="M17.394 12.919a6.678 6.678 0 012.561-5.267A6.71 6.71 0 009.103 12.92a6.691 6.691 0 003.776 6.025 6.715 6.715 0 007.076-.758 6.69 6.69 0 01-2.561-5.267z" fill="#EB001B"/><path d="M30.807 12.919a6.69 6.69 0 01-3.775 6.025 6.715 6.715 0 01-7.077-.758 6.7 6.7 0 002.562-5.267 6.692 6.692 0 00-2.562-5.267 6.711 6.711 0 019.83 1.713 6.692 6.692 0 011.022 3.554zm-.64 4.152v-.216h.087v-.044h-.221v.044h.087v.216h.047zm.43 0v-.26h-.067l-.078.179-.079-.18h-.068v.261h.049v-.197l.073.17h.05l.073-.17v.197h.048z" fill="#F79E1B"/><path d="M4.689.5h30.622c2.31 0 4.189 1.886 4.189 4.219v16.563c0 2.332-1.878 4.218-4.189 4.218H4.689C2.379 25.5.5 23.614.5 21.282V4.719C.5 2.386 2.378.5 4.689.5z" stroke="#D6DCE5"/></g><defs><clipPath id="clip0_176_55"><path fill="#fff" d="M0 0h40v26H0z"/></clipPath><filter id="filter0_dd_176_55" x="-7.684" y="-3.842" width="55.368" height="41.368" filterUnits="userSpaceOnUse" color-interpolation-filters="sRGB"><feFlood flood-opacity="0" result="BackgroundImageFix"/><feColorMatrix in="SourceAlpha" values="0 0 0 0 0 0 0 0 0 0 0 0 0 0 0 0 0 0 127 0" result="hardAlpha"/><feOffset dy=".384"/><feGaussianBlur stdDeviation="1.921"/><feColorMatrix values="0 0 0 0 0.717647 0 0 0 0 0.717647 0 0 0 0 0.717647 0 0 0 0.08 0"/><feBlend in2="BackgroundImageFix" result="effect1_dropShadow_176_55"/><feColorMatrix in="SourceAlpha" values="0 0 0 0 0 0 0 0 0 0 0 0 0 0 0 0 0 0 127 0" result="hardAlpha"/><feOffset dy="3.842"/><feGaussianBlur stdDeviation="3.842"/><feColorMatrix values="0 0 0 0 0.717647 0 0 0 0 0.717647 0 0 0 0 0.717647 0 0 0 0.08 0"/><feBlend in2="effect1_dropShadow_176_55" result="effect2_dropShadow_176_55"/><feBlend in="SourceGraphic" in2="effect2_dropShadow_176_55" result="shape"/></filter></defs></svg>