<svg width="40" height="26" viewBox="0 0 40 26" fill="none" xmlns="http://www.w3.org/2000/svg"><g filter="url(#filter0_dd_176_63)" clip-path="url(#clip0_176_63)"><path d="M35.311.097H4.689C2.152.097.096 2.167.096 4.719v16.563c0 2.553 2.056 4.622 4.593 4.622h30.622c2.537 0 4.593-2.07 4.593-4.622V4.719c0-2.553-2.056-4.622-4.593-4.622z" fill="#fff"/><path fill-rule="evenodd" clip-rule="evenodd" d="M8.804 9.245H6.51a.32.32 0 00-.315.27l-.928 5.922a.192.192 0 00.189.222H6.55a.32.32 0 00.315-.27l.25-1.598a.319.319 0 01.315-.27h.726c1.512 0 2.385-.737 2.613-2.196.102-.638.004-1.14-.293-1.49-.326-.386-.905-.59-1.673-.59zm.265 2.163c-.126.828-.755.828-1.363.828h-.347l.243-1.548a.192.192 0 01.19-.162h.158c.415 0 .805 0 1.008.238.12.142.157.352.11.644zm6.596-.027h-1.1a.192.192 0 00-.188.162l-.049.31-.077-.112c-.238-.348-.768-.464-1.298-.464-1.214 0-2.252.926-2.454 2.224-.105.648.044 1.267.41 1.699.335.397.814.562 1.384.562.979 0 1.521-.633 1.521-.633l-.049.308a.192.192 0 00.189.222h.99a.32.32 0 00.315-.27l.594-3.786a.191.191 0 00-.188-.222zm-1.532 2.152c-.106.632-.605 1.056-1.24 1.056-.32 0-.575-.103-.738-.298-.163-.194-.224-.47-.173-.777a1.233 1.233 0 011.232-1.064c.312 0 .566.104.733.3.167.2.234.477.186.783zm6.28-2.152h1.105c.155 0 .245.174.157.302l-3.673 5.335a.318.318 0 01-.262.138h-1.103a.193.193 0 01-.156-.304l1.143-1.625-1.216-3.592a.192.192 0 01.181-.254h1.086a.32.32 0 01.306.229l.645 2.17 1.524-2.258a.32.32 0 01.264-.141z" fill="#253B80"/><path fill-rule="evenodd" clip-rule="evenodd" d="M32.389 15.437l.942-6.03a.192.192 0 01.189-.163h1.06c.117 0 .207.106.189.223l-.93 5.921a.32.32 0 01-.314.271h-.947a.192.192 0 01-.189-.222zm-7.214-6.193H22.88a.32.32 0 00-.315.271l-.928 5.922a.192.192 0 00.188.222h1.178c.11 0 .203-.08.22-.19l.264-1.678a.32.32 0 01.315-.271h.726c1.512 0 2.384-.736 2.613-2.195.102-.638.004-1.14-.293-1.49-.326-.386-.905-.59-1.673-.59zm.265 2.163c-.125.829-.754.829-1.363.829h-.346l.243-1.548a.191.191 0 01.189-.162h.158c.415 0 .806 0 1.008.238.12.142.157.352.111.643zm6.595-.026h-1.098a.19.19 0 00-.189.162l-.048.31-.077-.113c-.238-.347-.769-.463-1.298-.463-1.215 0-2.252.925-2.454 2.224-.104.647.044 1.267.41 1.699.335.397.814.562 1.384.562.978 0 1.52-.633 1.52-.633l-.048.307a.192.192 0 00.19.223h.989a.32.32 0 00.315-.271l.594-3.785a.193.193 0 00-.19-.222zm-1.532 2.152a1.227 1.227 0 01-1.24 1.056c-.318 0-.574-.103-.738-.298-.162-.194-.223-.47-.172-.777.1-.627.606-1.064 1.231-1.064.313 0 .566.104.733.3.169.2.235.477.186.783z" fill="#179BD7"/><path d="M4.689.5h30.622c2.31 0 4.189 1.886 4.189 4.219v16.563c0 2.332-1.878 4.218-4.189 4.218H4.689C2.379 25.5.5 23.614.5 21.282V4.719C.5 2.386 2.378.5 4.689.5z" stroke="#D6DCE5"/></g><defs><clipPath id="clip0_176_63"><path fill="#fff" d="M0 0h40v26H0z"/></clipPath><filter id="filter0_dd_176_63" x="-7.684" y="-3.842" width="55.368" height="41.368" filterUnits="userSpaceOnUse" color-interpolation-filters="sRGB"><feFlood flood-opacity="0" result="BackgroundImageFix"/><feColorMatrix in="SourceAlpha" values="0 0 0 0 0 0 0 0 0 0 0 0 0 0 0 0 0 0 127 0" result="hardAlpha"/><feOffset dy=".384"/><feGaussianBlur stdDeviation="1.921"/><feColorMatrix values="0 0 0 0 0.717647 0 0 0 0 0.717647 0 0 0 0 0.717647 0 0 0 0.08 0"/><feBlend in2="BackgroundImageFix" result="effect1_dropShadow_176_63"/><feColorMatrix in="SourceAlpha" values="0 0 0 0 0 0 0 0 0 0 0 0 0 0 0 0 0 0 127 0" result="hardAlpha"/><feOffset dy="3.842"/><feGaussianBlur stdDeviation="3.842"/><feColorMatrix values="0 0 0 0 0.717647 0 0 0 0 0.717647 0 0 0 0 0.717647 0 0 0 0.08 0"/><feBlend in2="effect1_dropShadow_176_63" result="effect2_dropShadow_176_63"/><feBlend in="SourceGraphic" in2="effect2_dropShadow_176_63" result="shape"/></filter></defs></svg>