<svg width="122" height="18" viewBox="0 0 122 18" fill="none" xmlns="http://www.w3.org/2000/svg"><path d="M1.807 16.153c1.205 1.196 3.614 1.795 7.228 1.795 3.525 0 5.877-.594 7.055-1.782 1.187-1.188 1.78-2.62 1.78-4.297 0-1.502-.473-2.559-1.421-3.17-.948-.612-2.83-1.166-5.647-1.664l-3.574-.616c-.904-.157-1.355-.554-1.355-1.192 0-.454.288-.768.863-.943.576-.184 1.28-.275 2.113-.275.735 0 1.404.113 2.006.34.611.227.917.874.917 1.94h6.072c0-1.713-.616-3.189-1.847-4.429C14.766.62 12.405 0 8.915 0c-3.498 0-5.86.585-7.081 1.755C.62 2.917.014 4.305.014 5.921c0 1.546.486 2.655 1.46 3.328.984.672 2.835 1.266 5.555 1.782a82.43 82.43 0 013.56.602c.877.175 1.316.537 1.316 1.088 0 .489-.288.816-.864.982-.576.157-1.258.236-2.046.236-.797 0-1.484-.114-2.06-.34-.575-.237-.863-.896-.863-1.979H0c0 1.817.602 3.328 1.807 4.533zM19.872.157v17.686h6.072v-6.629h5.381v6.629h6.073V.157h-6.073V7.18h-5.38V.157h-6.073z" fill="#000"/><path fill-rule="evenodd" clip-rule="evenodd" d="M48.692 18c-3.632 0-6.094-.79-7.388-2.371-1.284-1.581-1.926-3.79-1.926-6.629 0-2.838.642-5.048 1.926-6.629C42.598.791 45.06 0 48.692 0s6.09.79 7.374 2.371c1.293 1.581 1.94 3.79 1.94 6.629 0 2.838-.647 5.048-1.94 6.629C54.782 17.209 52.324 18 48.692 18zm0-4.035c1.01 0 1.807-.231 2.391-.694.585-.472.877-1.896.877-4.271 0-2.42-.292-3.852-.877-4.297-.584-.445-1.381-.668-2.391-.668s-1.807.223-2.392.668c-.584.445-.877 1.878-.877 4.297 0 2.376.293 3.8.877 4.27.585.464 1.382.695 2.392.695zM70.802.157H59.68v17.686h6.072v-4.336h5.049c2.47 0 4.065-.647 4.783-1.94.726-1.3 1.09-2.881 1.09-4.742 0-1.842-.364-3.415-1.09-4.716C74.867.808 73.273.157 70.802.157zm-1.807 9.315h-3.242v-5.28h3.242c.584 0 1.005.175 1.262.524.265.35.398 1.053.398 2.11 0 1.074-.133 1.785-.398 2.135-.257.34-.678.51-1.262.51z" fill="#000"/><path d="M93.087 17.948c-3.65 0-6.1-.808-7.348-2.424-1.249-1.616-1.874-3.808-1.874-6.576 0-2.769.625-4.952 1.874-6.55C86.988.798 89.433 0 93.073 0c3.676 0 6.072.773 7.188 2.319 1.125 1.537 1.688 3.244 1.688 5.122H95.81c0-1.528-.248-2.476-.744-2.843-.487-.375-1.165-.563-2.033-.563-.886 0-1.612.227-2.179.681-.567.446-.85 1.856-.85 4.232 0 2.401.283 3.83.85 4.283.567.455 1.293.682 2.18.682.859 0 1.536-.193 2.032-.577.496-.384.744-1.323.744-2.816h6.139c0 1.816-.563 3.51-1.688 5.083-1.116 1.563-3.507 2.345-7.174 2.345z" fill="#000"/><path fill-rule="evenodd" clip-rule="evenodd" d="M105.299 15.629c1.293 1.58 3.755 2.371 7.387 2.371 3.632 0 6.09-.79 7.374-2.371C121.353 14.048 122 11.839 122 9c0-2.838-.647-5.048-1.94-6.629C118.776.791 116.318 0 112.686 0c-3.632 0-6.094.79-7.387 2.371-1.285 1.581-1.927 3.79-1.927 6.629 0 2.838.642 5.048 1.927 6.629zm9.779-2.358c-.585.463-1.382.694-2.392.694s-1.807-.231-2.392-.694c-.584-.472-.876-1.896-.876-4.271 0-2.42.292-3.852.876-4.297.585-.445 1.382-.668 2.392-.668s1.807.223 2.392.668c.584.445.876 1.878.876 4.297 0 2.376-.292 3.8-.876 4.27z" fill="#000"/><path d="M80.302 17.829c1.523 0 2.757-1.217 2.757-2.72 0-1.5-1.234-2.718-2.757-2.718-1.523 0-2.758 1.217-2.758 2.719 0 1.502 1.235 2.719 2.758 2.719z" fill="#000"/></svg>