<svg xmlns="http://www.w3.org/2000/svg"><symbol id="close-ic" viewBox="0 0 20 20"><path d="M16.288 14.962a.939.939 0 11-1.328 1.328L10 11.328l-4.962 4.96A.94.94 0 013.71 14.96L8.672 10l-4.96-4.962A.94.94 0 115.04 3.71L10 8.672l4.962-4.963a.94.94 0 111.328 1.328L11.328 10l4.96 4.962z"/></symbol><symbol id="burger-ic" viewBox="0 0 24 24"><path d="M21.375 12a1.125 1.125 0 01-1.125 1.125H3.75a1.125 1.125 0 110-2.25h16.5A1.125 1.125 0 0121.375 12zM3.75 7.125h16.5a1.125 1.125 0 000-2.25H3.75a1.125 1.125 0 000 2.25zm16.5 9.75H3.75a1.125 1.125 0 100 2.25h16.5a1.125 1.125 0 100-2.25z"/></symbol><symbol id="search-ic" viewBox="0 0 24 24"><path d="M21.796 20.204l-4.452-4.454a8.636 8.636 0 10-1.594 1.594l4.456 4.457a1.126 1.126 0 101.594-1.594l-.004-.003zM4.125 10.5a6.375 6.375 0 116.375 6.375A6.381 6.381 0 014.125 10.5z"/></symbol><symbol id="cart-ic" viewBox="0 0 24 24"><path d="M9.375 20.25a1.875 1.875 0 11-3.75 0 1.875 1.875 0 013.75 0zm7.875-1.875a1.875 1.875 0 100 3.75 1.875 1.875 0 000-3.75zm4.825-11.294l-2.558 8.316a2.614 2.614 0 01-2.51 1.853H7.775a2.637 2.637 0 01-2.525-1.904L2.045 4.125h-.92a1.125 1.125 0 010-2.25h1.202a1.882 1.882 0 011.803 1.36l.683 2.39H21a1.125 1.125 0 011.075 1.456zm-2.598.794H5.455l1.959 6.853a.375.375 0 00.36.272h9.233a.375.375 0 00.36-.264l2.11-6.861z"/></symbol><symbol id="user-accaunt-ic" viewBox="0 0 24 24"><path d="M12 1.875A10.125 10.125 0 1022.125 12 10.137 10.137 0 0012 1.875zM7.46 18.428a5.625 5.625 0 019.08 0 7.848 7.848 0 01-9.08 0zm1.915-7.178a2.625 2.625 0 115.25 0 2.625 2.625 0 01-5.25 0zm8.813 5.62a7.827 7.827 0 00-2.72-2.196 4.875 4.875 0 10-6.937 0 7.827 7.827 0 00-2.719 2.195 7.875 7.875 0 1112.366 0h.01z"/></symbol><symbol id="x-ic" viewBox="0 0 26 26"><path fill-rule="evenodd" clip-rule="evenodd" d="M15.267 18H19l-4.77-5.77L18.29 8h-1.867l-3.038 3.207L10.734 8H7l4.526 5.475L7.178 18h1.866l3.341-3.486L15.267 18zm.528-.984h1.05l-6.64-8.032h-1.05l6.64 8.032z"/></symbol><symbol id="yt-ic" viewBox="0 0 26 26"><path d="M19.86 10.158s-.136-.98-.557-1.411c-.534-.566-1.13-.57-1.403-.603C15.942 8 13.003 8 13.003 8h-.006s-2.94 0-4.897.144c-.273.034-.87.037-1.403.603-.42.43-.555 1.41-.555 1.41S6 11.31 6 12.46v1.077c0 1.15.14 2.302.14 2.302s.136.98.555 1.411c.533.567 1.233.547 1.544.608C9.361 17.967 13 18 13 18s2.942-.006 4.9-.147c.273-.034.87-.036 1.403-.603.42-.43.557-1.41.557-1.41s.14-1.15.14-2.303V12.46c0-1.15-.14-2.302-.14-2.302zm-8.306 4.687V10.85l3.781 2.005-3.782 1.991z"/></symbol><symbol id="vk-ic" viewBox="0 0 26 26"><path fill-rule="evenodd" clip-rule="evenodd" d="M6 9c.108 5.2 2.708 8.325 7.267 8.325h.258V14.35c1.675.167 2.942 1.392 3.45 2.975h2.367c-.65-2.367-2.359-3.675-3.425-4.175 1.066-.617 2.566-2.117 2.925-4.15h-2.15c-.467 1.65-1.85 3.15-3.167 3.292V9h-2.15v5.767c-1.333-.334-3.017-1.95-3.092-5.767H6z"/></symbol><symbol id="github-ic" viewBox="0 0 26 26"><path fill-rule="evenodd" clip-rule="evenodd" d="M13 6c-3.88 0-7 3.198-7 7.174 0 3.169 2.012 5.86 4.783 6.816.35.06.467-.15.467-.36v-1.225c-1.954.449-2.363-.956-2.363-.956-.32-.837-.787-1.047-.787-1.047-.642-.448.058-.448.058-.448.7.06 1.08.747 1.08.747.612 1.107 1.633.778 2.041.598.059-.478.233-.777.438-.956-1.546-.18-3.18-.807-3.18-3.557 0-.778.263-1.435.73-1.913-.059-.18-.321-.897.058-1.914 0 0 .583-.179 1.925.748a6.869 6.869 0 011.75-.24c.583 0 1.196.09 1.75.24 1.342-.927 1.925-.748 1.925-.748.38.987.146 1.704.058 1.914.438.508.73 1.135.73 1.913 0 2.75-1.634 3.348-3.209 3.527.263.21.467.658.467 1.315v1.973c0 .18.117.419.496.359 2.77-.927 4.783-3.617 4.783-6.786C20 9.198 16.88 6 13 6z"/></symbol><symbol id="arrow-right-ic" viewBox="0 0 24 24"><path d="M14.296 4.454l6.75 6.75a1.124 1.124 0 010 1.594l-6.75 6.75a1.127 1.127 0 01-1.594-1.594l4.83-4.829H3.75a1.125 1.125 0 110-2.25h13.781l-4.83-4.829a1.127 1.127 0 111.594-1.594v.002z"/></symbol><symbol id="arrow-left-ic" viewBox="0 0 24 24"><path d="M9.704 4.454l-6.75 6.75a1.124 1.124 0 000 1.594l6.75 6.75a1.127 1.127 0 001.594-1.594l-4.83-4.829H20.25a1.125 1.125 0 100-2.25H6.469l4.83-4.829a1.127 1.127 0 10-1.594-1.594v.002z"/></symbol></svg>