<svg xmlns="http://www.w3.org/2000/svg"><symbol id="close-ic" viewBox="0 0 20 20"><path d="M16.288 14.962a.939.939 0 11-1.328 1.328L10 11.328l-4.962 4.96A.94.94 0 013.71 14.96L8.672 10l-4.96-4.962A.94.94 0 115.04 3.71L10 8.672l4.962-4.963a.94.94 0 111.328 1.328L11.328 10l4.96 4.962z"/></symbol><symbol id="burger-ic" viewBox="0 0 24 24"><path d="M21.375 12a1.125 1.125 0 01-1.125 1.125H3.75a1.125 1.125 0 110-2.25h16.5A1.125 1.125 0 0121.375 12zM3.75 7.125h16.5a1.125 1.125 0 000-2.25H3.75a1.125 1.125 0 000 2.25zm16.5 9.75H3.75a1.125 1.125 0 100 2.25h16.5a1.125 1.125 0 100-2.25z"/></symbol><symbol id="search-ic" viewBox="0 0 24 24"><path d="M21.796 20.204l-4.452-4.454a8.636 8.636 0 10-1.594 1.594l4.456 4.457a1.126 1.126 0 101.594-1.594l-.004-.003zM4.125 10.5a6.375 6.375 0 116.375 6.375A6.381 6.381 0 014.125 10.5z"/></symbol><symbol id="cart-ic" viewBox="0 0 24 24"><path d="M9.375 20.25a1.875 1.875 0 11-3.75 0 1.875 1.875 0 013.75 0zm7.875-1.875a1.875 1.875 0 100 3.75 1.875 1.875 0 000-3.75zm4.825-11.294l-2.558 8.316a2.614 2.614 0 01-2.51 1.853H7.775a2.637 2.637 0 01-2.525-1.904L2.045 4.125h-.92a1.125 1.125 0 010-2.25h1.202a1.882 1.882 0 011.803 1.36l.683 2.39H21a1.125 1.125 0 011.075 1.456zm-2.598.794H5.455l1.959 6.853a.375.375 0 00.36.272h9.233a.375.375 0 00.36-.264l2.11-6.861z"/></symbol><symbol id="user-accaunt-ic" viewBox="0 0 24 24"><path d="M12 1.875A10.125 10.125 0 1022.125 12 10.137 10.137 0 0012 1.875zM7.46 18.428a5.625 5.625 0 019.08 0 7.848 7.848 0 01-9.08 0zm1.915-7.178a2.625 2.625 0 115.25 0 2.625 2.625 0 01-5.25 0zm8.813 5.62a7.827 7.827 0 00-2.72-2.196 4.875 4.875 0 10-6.937 0 7.827 7.827 0 00-2.719 2.195 7.875 7.875 0 1112.366 0h.01z"/></symbol></svg>