<svg width="40" height="26" viewBox="0 0 40 26" fill="none" xmlns="http://www.w3.org/2000/svg"><g filter="url(#filter0_dd_176_69)" clip-path="url(#clip0_176_69)"><path d="M35.311.097H4.689C2.152.097.096 2.167.096 4.719v16.563c0 2.553 2.056 4.622 4.593 4.622h30.622c2.537 0 4.593-2.07 4.593-4.622V4.719c0-2.553-2.056-4.622-4.593-4.622z" fill="#fff"/><path d="M19.757 8.794L17.9 17.528h-2.245l1.857-8.734h2.245zm9.446 5.64l1.182-3.28.68 3.28h-1.862zm2.506 3.094h2.076l-1.812-8.734h-1.917c-.43 0-.794.252-.956.64l-3.369 8.094h2.358l.468-1.304h2.881l.27 1.304zm-5.86-2.851c.01-2.306-3.169-2.433-3.147-3.462.007-.314.304-.647.953-.732.322-.043 1.208-.075 2.214.39l.394-1.851a6 6 0 00-2.1-.388c-2.22 0-3.782 1.188-3.795 2.888-.014 1.257 1.115 1.959 1.966 2.377.874.428 1.168.702 1.165 1.085-.006.586-.698.845-1.344.855-1.129.018-1.784-.307-2.306-.552l-.407 1.914c.524.242 1.493.453 2.497.464 2.359 0 3.902-1.173 3.91-2.988zm-9.3-5.883l-3.638 8.734h-2.374l-1.79-6.97c-.11-.43-.204-.586-.534-.768-.54-.294-1.43-.57-2.215-.742l.053-.254h3.82c.488 0 .926.326 1.036.89l.946 5.055 2.336-5.945h2.36z" fill="#1434CB"/><path d="M4.689.5h30.622c2.31 0 4.189 1.886 4.189 4.219v16.563c0 2.332-1.878 4.218-4.189 4.218H4.689C2.379 25.5.5 23.614.5 21.282V4.719C.5 2.386 2.378.5 4.689.5z" stroke="#D6DCE5"/></g><defs><clipPath id="clip0_176_69"><path fill="#fff" d="M0 0h40v26H0z"/></clipPath><filter id="filter0_dd_176_69" x="-7.684" y="-3.842" width="55.368" height="41.368" filterUnits="userSpaceOnUse" color-interpolation-filters="sRGB"><feFlood flood-opacity="0" result="BackgroundImageFix"/><feColorMatrix in="SourceAlpha" values="0 0 0 0 0 0 0 0 0 0 0 0 0 0 0 0 0 0 127 0" result="hardAlpha"/><feOffset dy=".384"/><feGaussianBlur stdDeviation="1.921"/><feColorMatrix values="0 0 0 0 0.717647 0 0 0 0 0.717647 0 0 0 0 0.717647 0 0 0 0.08 0"/><feBlend in2="BackgroundImageFix" result="effect1_dropShadow_176_69"/><feColorMatrix in="SourceAlpha" values="0 0 0 0 0 0 0 0 0 0 0 0 0 0 0 0 0 0 127 0" result="hardAlpha"/><feOffset dy="3.842"/><feGaussianBlur stdDeviation="3.842"/><feColorMatrix values="0 0 0 0 0.717647 0 0 0 0 0.717647 0 0 0 0 0.717647 0 0 0 0.08 0"/><feBlend in2="effect1_dropShadow_176_69" result="effect2_dropShadow_176_69"/><feBlend in="SourceGraphic" in2="effect2_dropShadow_176_69" result="shape"/></filter></defs></svg>