<svg width="40" height="26" viewBox="0 0 40 26" fill="none" xmlns="http://www.w3.org/2000/svg">
<g clip-path="url(#clip0_176_74)">
<g filter="url(#filter0_dd_176_74)">
<path d="M35.311 0.0966797H4.689C2.15219 0.0966797 0.0957031 2.16612 0.0957031 4.7189V21.2819C0.0957031 23.8347 2.15219 25.9041 4.689 25.9041H35.311C37.8478 25.9041 39.9043 23.8347 39.9043 21.2819V4.7189C39.9043 2.16612 37.8478 0.0966797 35.311 0.0966797Z" fill="white"/>
<path d="M12.9714 9.61971C13.237 9.28535 13.4173 8.8365 13.3697 8.37793C12.9809 8.39738 12.5065 8.63599 12.2318 8.97055C11.9852 9.25698 11.7669 9.72467 11.8238 10.1641C12.2602 10.2022 12.6963 9.94454 12.9714 9.61971Z" fill="#000008"/>
<path d="M13.3648 10.2501C12.7309 10.2121 12.192 10.612 11.8894 10.612C11.5866 10.612 11.1231 10.2693 10.6218 10.2785C9.96932 10.2881 9.36388 10.6594 9.03281 11.2498C8.35174 12.431 8.85308 14.1831 9.51531 15.145C9.83691 15.621 10.2245 16.1451 10.7353 16.1262C11.2178 16.1072 11.4069 15.8118 11.9935 15.8118C12.5796 15.8118 12.75 16.1262 13.2608 16.1167C13.7904 16.1072 14.1216 15.6405 14.4432 15.1641C14.8121 14.6216 14.9631 14.0977 14.9727 14.069C14.9631 14.0594 13.9512 13.6687 13.9418 12.4975C13.9323 11.5166 14.7364 11.0502 14.7741 11.0212C14.3201 10.3454 13.6107 10.2693 13.3648 10.2501Z" fill="#000008"/>
<path d="M18.8834 8.92236C20.2609 8.92236 21.2202 9.87791 21.2202 11.2692C21.2202 12.6653 20.2412 13.6258 18.8489 13.6258H17.3237V16.0665H16.2217V8.92236H18.8834ZM17.3237 12.695H18.5881C19.5475 12.695 20.0936 12.1752 20.0936 11.2741C20.0936 10.3731 19.5475 9.85816 18.5931 9.85816H17.3237V12.695Z" fill="#000008"/>
<path d="M21.5081 14.5862C21.5081 13.6752 22.2018 13.1158 23.4318 13.0465L24.8486 12.9624V12.5614C24.8486 11.9821 24.46 11.6355 23.8107 11.6355C23.1956 11.6355 22.8118 11.9325 22.7184 12.3979H21.7147C21.7738 11.4572 22.5707 10.7642 23.8499 10.7642C25.1045 10.7642 25.9064 11.4325 25.9064 12.4771V16.0665H24.888V15.21H24.8635C24.5634 15.7893 23.909 16.1556 23.23 16.1556C22.2165 16.1556 21.5081 15.5219 21.5081 14.5862ZM24.8486 14.1159V13.705L23.5744 13.7842C22.9397 13.8288 22.5806 14.111 22.5806 14.5566C22.5806 15.012 22.9545 15.3091 23.5252 15.3091C24.2681 15.3091 24.8486 14.7942 24.8486 14.1159Z" fill="#000008"/>
<path d="M26.8679 17.9828V17.1163C26.9465 17.1362 27.1235 17.1362 27.2122 17.1362C27.7042 17.1362 27.9699 16.9282 28.1322 16.3936C28.1322 16.3836 28.2257 16.0766 28.2257 16.0717L26.3562 10.8584H27.5073L28.8161 15.0964H28.8358L30.1446 10.8584H31.2663L29.3276 16.339C28.8851 17.6015 28.3734 18.0075 27.3009 18.0075C27.2122 18.0075 26.9465 17.9976 26.8679 17.9828Z" fill="#000008"/>
<path d="M4.689 0.5H35.311C37.6216 0.5 39.5 2.38573 39.5 4.71852V21.2815C39.5 23.6143 37.6216 25.5 35.311 25.5H4.689C2.37843 25.5 0.5 23.6143 0.5 21.2815V4.71852C0.5 2.38573 2.37843 0.5 4.689 0.5Z" stroke="#D6DCE5"/>
</g>
</g>
<defs>
<filter id="filter0_dd_176_74" x="-7.684" y="-3.842" width="55.368" height="41.368" filterUnits="userSpaceOnUse" color-interpolation-filters="sRGB">
<feFlood flood-opacity="0" result="BackgroundImageFix"/>
<feColorMatrix in="SourceAlpha" type="matrix" values="0 0 0 0 0 0 0 0 0 0 0 0 0 0 0 0 0 0 127 0" result="hardAlpha"/>
<feOffset dy="0.3842"/>
<feGaussianBlur stdDeviation="1.921"/>
<feColorMatrix type="matrix" values="0 0 0 0 0.717647 0 0 0 0 0.717647 0 0 0 0 0.717647 0 0 0 0.08 0"/>
<feBlend mode="normal" in2="BackgroundImageFix" result="effect1_dropShadow_176_74"/>
<feColorMatrix in="SourceAlpha" type="matrix" values="0 0 0 0 0 0 0 0 0 0 0 0 0 0 0 0 0 0 127 0" result="hardAlpha"/>
<feOffset dy="3.842"/>
<feGaussianBlur stdDeviation="3.842"/>
<feColorMatrix type="matrix" values="0 0 0 0 0.717647 0 0 0 0 0.717647 0 0 0 0 0.717647 0 0 0 0.08 0"/>
<feBlend mode="normal" in2="effect1_dropShadow_176_74" result="effect2_dropShadow_176_74"/>
<feBlend mode="normal" in="SourceGraphic" in2="effect2_dropShadow_176_74" result="shape"/>
</filter>
<clipPath id="clip0_176_74">
<rect width="40" height="26" fill="white"/>
</clipPath>
</defs>
</svg>
