<svg width="14" height="14" viewBox="0 0 14 14" fill="none" xmlns="http://www.w3.org/2000/svg">
<path d="M5.71409 2.6607L10.0891 7.0357C10.1503 7.09666 10.1988 7.16911 10.2319 7.24888C10.2651 7.32865 10.2821 7.41417 10.2821 7.50054C10.2821 7.58691 10.2651 7.67243 10.2319 7.7522C10.1988 7.83197 10.1503 7.90442 10.0891 7.96538L5.71409 12.3404C5.5908 12.4637 5.42359 12.5329 5.24924 12.5329C5.07489 12.5329 4.90768 12.4637 4.7844 12.3404C4.66112 12.2171 4.59186 12.0499 4.59186 11.8755C4.59186 11.7012 4.66112 11.534 4.7844 11.4107L8.6951 7.49999L4.78385 3.58929C4.66057 3.46601 4.59131 3.2988 4.59131 3.12445C4.59131 2.9501 4.66057 2.78289 4.78385 2.6596C4.90714 2.53632 5.07435 2.46706 5.2487 2.46706C5.42305 2.46706 5.59026 2.53632 5.71354 2.6596L5.71409 2.6607Z" fill="#616060" />
</svg>
