<svg xmlns="http://www.w3.org/2000/svg" version="1.1" xmlns:xlink="http://www.w3.org/1999/xlink" xmlns:svgjs="http://svgjs.com/svgjs" width="512" height="512"><svg width="512" height="512" viewBox="0 0 512 512" version="1.1" xmlns="http://www.w3.org/2000/svg" xmlns:xlink="http://www.w3.org/1999/xlink" xml:space="preserve" xmlns:serif="http://www.serif.com/" style="fill-rule:evenodd;clip-rule:evenodd;stroke-linejoin:round;stroke-miterlimit:2;">
    <rect x="0" y="0" width="512" height="512" style="fill:white;"></rect>
    <path d="M137,150L106,150C71.229,150 43,178.229 43,213C43,213 43,409 43,409C43,443.771 71.229,472 106,472C106,472 406,472 406,472C440.771,472 469,443.771 469,409C469,409 469,213 469,213C469,178.229 440.771,150 406,150L375,150L375,103C375,68.229 346.771,40 312,40L200,40C165.229,40 137,68.229 137,103L137,150ZM375,172L406,172C428.629,172 447,190.371 447,213L447,409C447,431.629 428.629,450 406,450L106,450C83.371,450 65,431.629 65,409L65,213C65,190.371 83.371,172 106,172L137,172L137,222.084C125.877,226.476 118,237.325 118,250C118,266.557 131.443,280 148,280C164.557,280 178,266.557 178,250C178,237.325 170.123,226.476 159,222.084L159,172L353,172L353,222.084C341.877,226.476 334,237.325 334,250C334,266.557 347.443,280 364,280C380.557,280 394,266.557 394,250C394,237.325 386.123,226.476 375,222.084L375,172ZM353,150L353,103C353,80.371 334.629,62 312,62C312,62 200,62 200,62C177.371,62 159,80.371 159,103L159,150L353,150Z"></path>
</svg><style>@media (prefers-color-scheme: light) { :root { filter: none; } }
</style></svg>