<svg xmlns="http://www.w3.org/2000/svg" version="1.1" xmlns:xlink="http://www.w3.org/1999/xlink" xmlns:svgjs="http://svgjs.com/svgjs" width="250" height="250"><svg width="250" height="250" viewBox="0 0 250 250" fill="none" xmlns="http://www.w3.org/2000/svg">
<rect width="250" height="250" fill="#41B2D4"></rect>
<circle cx="125" cy="125" r="97" fill="#2A4968"></circle>
<path d="M123.03 125C123.03 131.859 121.772 137.757 119.256 142.692C116.74 147.606 113.29 151.392 108.908 154.048C104.547 156.683 99.5875 158 94.0309 158C88.4532 158 83.4732 156.683 79.0908 154.048C74.7294 151.392 71.2905 147.596 68.7743 142.661C66.2581 137.725 65 131.838 65 125C65 118.141 66.2581 112.254 68.7743 107.339C71.2905 102.404 74.7294 98.6188 79.0908 95.9838C83.4732 93.3279 88.4532 92 94.0309 92C99.5875 92 104.547 93.3279 108.908 95.9838C113.29 98.6188 116.74 102.404 119.256 107.339C121.772 112.254 123.03 118.141 123.03 125ZM113.406 125C113.406 119.772 112.557 115.37 110.858 111.794C109.181 108.197 106.874 105.478 103.938 103.638C101.024 101.777 97.7213 100.846 94.0309 100.846C90.3194 100.846 87.0064 101.777 84.0918 103.638C81.1772 105.478 78.8706 108.197 77.1722 111.794C75.4947 115.37 74.656 119.772 74.656 125C74.656 130.228 75.4947 134.641 77.1722 138.238C78.8706 141.814 81.1772 144.532 84.0918 146.394C87.0064 148.234 90.3194 149.154 94.0309 149.154C97.7213 149.154 101.024 148.234 103.938 146.394C106.874 144.532 109.181 141.814 110.858 138.238C112.557 134.641 113.406 130.228 113.406 125Z" fill="#F7F7F7"></path>
<path d="M135.147 157.122V92.8783H144.866V123.557H145.653L172.671 92.8783H184.906L158.926 121.8L185 157.122H173.3L152.478 128.419L144.866 137.14V157.122H135.147Z" fill="#F7F7F7"></path>
</svg><style>@media (prefers-color-scheme: light) { :root { filter: none; } }
</style></svg>