<svg width="40" height="26" viewBox="0 0 40 26" fill="none" xmlns="http://www.w3.org/2000/svg">
<g clip-path="url(#clip0_176_44)">
<g filter="url(#filter0_dd_176_44)">
<path d="M35.3846 0H4.61538C2.06638 0 0 2.08488 0 4.65672V21.3433C0 23.9151 2.06638 26 4.61538 26H35.3846C37.9336 26 40 23.9151 40 21.3433V4.65672C40 2.08488 37.9336 0 35.3846 0Z" fill="white"/>
<path d="M19.2058 16.0522H18.3071V9.05908H20.6896C21.2934 9.05908 21.8083 9.26038 22.2296 9.66298C22.6602 10.0655 22.8755 10.557 22.8755 11.1374C22.8755 11.7319 22.6602 12.2233 22.2296 12.6212C21.813 13.0191 21.2981 13.2157 20.6896 13.2157H19.2058V16.0522ZM19.2058 9.92038V12.3591H20.7083C21.0641 12.3591 21.3636 12.2374 21.5977 11.9987C21.8364 11.7599 21.9581 11.4697 21.9581 11.1421C21.9581 10.8191 21.8364 10.5336 21.5977 10.2949C21.3636 10.0468 21.0687 9.92508 20.7083 9.92508H19.2058V9.92038Z" fill="#3C4043"/>
<path d="M25.2252 11.1089C25.8898 11.1089 26.414 11.2868 26.7978 11.6425C27.1816 11.9983 27.3736 12.4851 27.3736 13.1029V16.0518H26.517V15.3872H26.4796C26.1098 15.9348 25.6137 16.2063 24.9958 16.2063C24.4669 16.2063 24.0269 16.0518 23.6711 15.7382C23.3154 15.4246 23.1375 15.0361 23.1375 14.568C23.1375 14.0719 23.3248 13.6787 23.6992 13.3885C24.0737 13.0936 24.5745 12.9485 25.1971 12.9485C25.7307 12.9485 26.1707 13.0468 26.5124 13.2434V13.0374C26.5124 12.7238 26.3906 12.4617 26.1425 12.2417C25.8944 12.0217 25.6043 11.914 25.272 11.914C24.7711 11.914 24.3733 12.1246 24.083 12.5506L23.292 12.0544C23.7273 11.4225 24.3733 11.1089 25.2252 11.1089ZM24.0643 14.5821C24.0643 14.8161 24.1626 15.0127 24.3639 15.1672C24.5605 15.3216 24.7945 15.4012 25.0613 15.4012C25.4405 15.4012 25.7775 15.2608 26.0724 14.9799C26.3673 14.6991 26.517 14.3714 26.517 13.9923C26.2362 13.7723 25.8476 13.6599 25.3468 13.6599C24.9817 13.6599 24.6774 13.7489 24.434 13.9221C24.1859 14.1046 24.0643 14.3246 24.0643 14.5821Z" fill="#3C4043"/>
<path d="M32.2604 11.2637L29.2647 18.1538H28.3379L29.4519 15.7432L27.4766 11.2637H28.4549L29.8779 14.6994H29.8966L31.2821 11.2637H32.2604Z" fill="#3C4043"/>
<path d="M15.631 12.6492C15.631 12.3562 15.6048 12.0758 15.5561 11.8062H11.7891V13.3508L13.9586 13.3513C13.8706 13.8653 13.5874 14.3034 13.1535 14.5955V15.5976H14.4449C15.199 14.8997 15.631 13.8681 15.631 12.6492Z" fill="#4285F4"/>
<path d="M13.1541 14.5955C12.7946 14.838 12.3317 14.9798 11.7901 14.9798C10.744 14.9798 9.85654 14.2749 9.53874 13.3247H8.20654V14.3582C8.86654 15.6679 10.223 16.5666 11.7901 16.5666C12.8732 16.5666 13.7832 16.2104 14.4455 15.5972L13.1541 14.5955Z" fill="#34A853"/>
<path d="M9.41313 12.5575C9.41313 12.2907 9.45753 12.0328 9.53853 11.7903V10.7568H8.20643C7.93353 11.2984 7.78003 11.9097 7.78003 12.5575C7.78003 13.2053 7.93403 13.8166 8.20643 14.3582L9.53853 13.3247C9.45753 13.0822 9.41313 12.8243 9.41313 12.5575Z" fill="#FABB05"/>
<path d="M11.7901 10.1356C12.3813 10.1356 12.9107 10.3392 13.3287 10.7371L14.4731 9.59363C13.778 8.94623 12.8718 8.54883 11.7901 8.54883C10.2235 8.54883 8.86654 9.44753 8.20654 10.7572L9.53864 11.7907C9.85644 10.8405 10.744 10.1356 11.7901 10.1356Z" fill="#E94235"/>
<path d="M4.689 0.5H35.311C37.6216 0.5 39.5 2.38573 39.5 4.71852V21.2815C39.5 23.6143 37.6216 25.5 35.311 25.5H4.689C2.37843 25.5 0.5 23.6143 0.5 21.2815V4.71852C0.5 2.38573 2.37843 0.5 4.689 0.5Z" stroke="#D6DCE5"/>
</g>
</g>
<defs>
<filter id="filter0_dd_176_44" x="-7.684" y="-3.842" width="55.368" height="41.368" filterUnits="userSpaceOnUse" color-interpolation-filters="sRGB">
<feFlood flood-opacity="0" result="BackgroundImageFix"/>
<feColorMatrix in="SourceAlpha" type="matrix" values="0 0 0 0 0 0 0 0 0 0 0 0 0 0 0 0 0 0 127 0" result="hardAlpha"/>
<feOffset dy="0.3842"/>
<feGaussianBlur stdDeviation="1.921"/>
<feColorMatrix type="matrix" values="0 0 0 0 0.717647 0 0 0 0 0.717647 0 0 0 0 0.717647 0 0 0 0.08 0"/>
<feBlend mode="normal" in2="BackgroundImageFix" result="effect1_dropShadow_176_44"/>
<feColorMatrix in="SourceAlpha" type="matrix" values="0 0 0 0 0 0 0 0 0 0 0 0 0 0 0 0 0 0 127 0" result="hardAlpha"/>
<feOffset dy="3.842"/>
<feGaussianBlur stdDeviation="3.842"/>
<feColorMatrix type="matrix" values="0 0 0 0 0.717647 0 0 0 0 0.717647 0 0 0 0 0.717647 0 0 0 0.08 0"/>
<feBlend mode="normal" in2="effect1_dropShadow_176_44" result="effect2_dropShadow_176_44"/>
<feBlend mode="normal" in="SourceGraphic" in2="effect2_dropShadow_176_44" result="shape"/>
</filter>
<clipPath id="clip0_176_44">
<rect width="40" height="26" fill="white"/>
</clipPath>
</defs>
</svg>
