<svg width="40" height="26" viewBox="0 0 40 26" fill="none" xmlns="http://www.w3.org/2000/svg">
<g clip-path="url(#clip0_176_55)">
<g filter="url(#filter0_dd_176_55)">
<path d="M35.3846 0H4.61539C2.06638 0 0 2.08488 0 4.65672V21.3433C0 23.9151 2.06638 26 4.61539 26H35.3846C37.9336 26 40 23.9151 40 21.3433V4.65672C40 2.08488 37.9336 0 35.3846 0Z" fill="white"/>
<path d="M22.8897 7.65234H17.0208V18.1854H22.8897V7.65234Z" fill="#FF5F00"/>
<path d="M17.3936 12.919C17.3926 11.9045 17.6228 10.9032 18.0667 9.9908C18.5106 9.07837 19.1564 8.27873 19.9554 7.65245C18.966 6.87562 17.7776 6.39261 16.5262 6.2585C15.2748 6.1243 14.011 6.34449 12.879 6.89385C11.747 7.44322 10.7926 8.29955 10.1249 9.36501C9.45708 10.4305 9.10303 11.662 9.10303 12.919C9.10303 14.1759 9.45708 15.4075 10.1249 16.4729C10.7926 17.5384 11.747 18.3947 12.879 18.944C14.011 19.4933 15.2748 19.7135 16.5262 19.5794C17.7776 19.4452 18.966 18.9622 19.9554 18.1855C19.1564 17.5592 18.5106 16.7596 18.0667 15.8471C17.6229 14.9347 17.3926 13.9333 17.3936 12.919Z" fill="#EB001B"/>
<path d="M30.8074 12.919C30.8075 14.1758 30.4534 15.4075 29.7857 16.4728C29.118 17.5383 28.1636 18.3946 27.0317 18.944C25.8998 19.4933 24.6358 19.7135 23.3845 19.5794C22.1331 19.4452 20.9448 18.9622 19.9553 18.1855C20.7537 17.5585 21.3991 16.7588 21.8428 15.8465C22.2866 14.9342 22.5172 13.9332 22.5172 12.919C22.5172 11.9047 22.2866 10.9037 21.8428 9.99139C21.3991 9.07907 20.7537 8.27933 19.9553 7.65245C20.9448 6.87562 22.1331 6.39261 23.3845 6.2585C24.6358 6.1243 25.8998 6.34449 27.0317 6.89385C28.1636 7.44322 29.118 8.29955 29.7857 9.36501C30.4534 10.4305 30.8075 11.662 30.8074 12.919Z" fill="#F79E1B"/>
<path d="M30.1674 17.071V16.8546H30.2544V16.8105H30.0327V16.8546H30.1198V17.071H30.1674ZM30.5979 17.071V16.8101H30.5299L30.4517 16.9896L30.3735 16.8101H30.3055V17.071H30.3535V16.8742L30.4268 17.0439H30.4766L30.5499 16.8738V17.071H30.5979Z" fill="#F79E1B"/>
<path d="M4.689 0.5H35.311C37.6216 0.5 39.5 2.38573 39.5 4.71852V21.2815C39.5 23.6143 37.6216 25.5 35.311 25.5H4.689C2.37843 25.5 0.5 23.6143 0.5 21.2815V4.71852C0.5 2.38573 2.37843 0.5 4.689 0.5Z" stroke="#D6DCE5"/>
</g>
</g>
<defs>
<filter id="filter0_dd_176_55" x="-7.684" y="-3.842" width="55.368" height="41.368" filterUnits="userSpaceOnUse" color-interpolation-filters="sRGB">
<feFlood flood-opacity="0" result="BackgroundImageFix"/>
<feColorMatrix in="SourceAlpha" type="matrix" values="0 0 0 0 0 0 0 0 0 0 0 0 0 0 0 0 0 0 127 0" result="hardAlpha"/>
<feOffset dy="0.3842"/>
<feGaussianBlur stdDeviation="1.921"/>
<feColorMatrix type="matrix" values="0 0 0 0 0.717647 0 0 0 0 0.717647 0 0 0 0 0.717647 0 0 0 0.08 0"/>
<feBlend mode="normal" in2="BackgroundImageFix" result="effect1_dropShadow_176_55"/>
<feColorMatrix in="SourceAlpha" type="matrix" values="0 0 0 0 0 0 0 0 0 0 0 0 0 0 0 0 0 0 127 0" result="hardAlpha"/>
<feOffset dy="3.842"/>
<feGaussianBlur stdDeviation="3.842"/>
<feColorMatrix type="matrix" values="0 0 0 0 0.717647 0 0 0 0 0.717647 0 0 0 0 0.717647 0 0 0 0.08 0"/>
<feBlend mode="normal" in2="effect1_dropShadow_176_55" result="effect2_dropShadow_176_55"/>
<feBlend mode="normal" in="SourceGraphic" in2="effect2_dropShadow_176_55" result="shape"/>
</filter>
<clipPath id="clip0_176_55">
<rect width="40" height="26" fill="white"/>
</clipPath>
</defs>
</svg>
