<svg width="40" height="26" viewBox="0 0 40 26" fill="none" xmlns="http://www.w3.org/2000/svg">
<g clip-path="url(#clip0_176_63)">
<g filter="url(#filter0_dd_176_63)">
<path d="M35.311 0.0966797H4.689C2.15219 0.0966797 0.0957031 2.16612 0.0957031 4.7189V21.2819C0.0957031 23.8347 2.15219 25.9041 4.689 25.9041H35.311C37.8478 25.9041 39.9043 23.8347 39.9043 21.2819V4.7189C39.9043 2.16612 37.8478 0.0966797 35.311 0.0966797Z" fill="white"/>
<path fill-rule="evenodd" clip-rule="evenodd" d="M8.80411 9.24463H6.50896C6.35194 9.24463 6.21834 9.35952 6.19383 9.51552L5.26559 15.4373C5.24715 15.5541 5.33712 15.6594 5.45488 15.6594H6.5506C6.70762 15.6594 6.84122 15.5445 6.86573 15.3883L7.1161 13.7912C7.14021 13.6348 7.27411 13.5201 7.43093 13.5201H8.15742C9.66929 13.5201 10.5418 12.7839 10.7698 11.3252C10.8724 10.687 10.7742 10.1855 10.4771 9.83424C10.1509 9.44875 9.57225 9.24463 8.80411 9.24463ZM9.06893 11.4076C8.9434 12.2362 8.31414 12.2362 7.7057 12.2362H7.35939L7.60239 10.6885C7.61683 10.5951 7.69733 10.5262 7.79128 10.5262H7.95009C8.36455 10.5262 8.75549 10.5262 8.95754 10.7639C9.07789 10.9058 9.11486 11.1164 9.06893 11.4076ZM15.6648 11.381H14.5658C14.4721 11.381 14.3911 11.4499 14.3767 11.5435L14.3281 11.8527L14.2512 11.7407C14.0133 11.3931 13.4828 11.277 12.9532 11.277C11.7386 11.277 10.7014 12.2026 10.4993 13.501C10.3943 14.1486 10.5435 14.7678 10.9087 15.1997C11.2436 15.5968 11.7228 15.7623 12.293 15.7623C13.2716 15.7623 13.8144 15.1291 13.8144 15.1291L13.7652 15.4365C13.7468 15.554 13.8367 15.6592 13.9538 15.6592H14.9439C15.1014 15.6592 15.2342 15.5444 15.259 15.3881L15.8531 11.6032C15.8718 11.4868 15.7822 11.381 15.6648 11.381ZM14.1328 13.5333C14.0267 14.1651 13.5283 14.5892 12.8928 14.5892C12.5737 14.5892 12.3184 14.4862 12.1547 14.291C11.9923 14.0972 11.9306 13.8213 11.9823 13.514C12.0813 12.8876 12.5881 12.4498 13.214 12.4498C13.5259 12.4498 13.7797 12.554 13.9469 12.7509C14.1142 12.9498 14.1807 13.2273 14.1328 13.5333ZM20.4138 11.3808H21.5184C21.673 11.3808 21.7633 11.5553 21.6754 11.683L18.002 17.0181C17.9425 17.1045 17.8445 17.156 17.7398 17.156H16.6367C16.4813 17.156 16.3907 16.98 16.4806 16.852L17.6244 15.2275L16.4079 11.6353C16.3659 11.5105 16.4574 11.3808 16.5894 11.3808H17.6747C17.8158 11.3808 17.9401 11.4739 17.9809 11.6097L18.6264 13.7792L20.1498 11.5216C20.2095 11.4334 20.3085 11.3808 20.4138 11.3808Z" fill="#253B80"/>
<path fill-rule="evenodd" clip-rule="evenodd" d="M32.389 15.437L33.3309 9.40696C33.3453 9.31342 33.4259 9.24444 33.5196 9.24414H34.58C34.6971 9.24414 34.7869 9.34981 34.7685 9.46671L33.8397 15.3881C33.8154 15.5444 33.6819 15.6592 33.5245 15.6592H32.5775C32.4604 15.6592 32.3704 15.5539 32.389 15.437ZM25.1752 9.24444H22.8798C22.7231 9.24444 22.5895 9.35934 22.5649 9.51523L21.6367 15.437C21.6182 15.5539 21.7081 15.6592 21.8254 15.6592H23.0032C23.1127 15.6592 23.2064 15.5789 23.2234 15.4695L23.4868 13.791C23.511 13.6345 23.6449 13.5198 23.8016 13.5198H24.5278C26.04 13.5198 26.9124 12.7837 27.1405 11.325C27.2434 10.6867 27.1445 10.1853 26.8476 9.83405C26.5216 9.44856 25.9434 9.24444 25.1752 9.24444ZM25.44 11.4073C25.3149 12.236 24.6856 12.236 24.0768 12.236H23.7308L23.9741 10.6883C23.9885 10.5949 24.0685 10.526 24.1627 10.526H24.3214C24.7356 10.526 25.127 10.526 25.3289 10.7636C25.4494 10.9055 25.4861 11.1162 25.44 11.4073ZM32.0353 11.3807H30.937C30.8426 11.3807 30.7624 11.4497 30.7483 11.5432L30.6998 11.8525L30.6226 11.7404C30.3846 11.3929 29.8544 11.2768 29.3248 11.2768C28.1102 11.2768 27.0733 12.2024 26.8712 13.5007C26.7665 14.1483 26.9152 14.7676 27.2803 15.1995C27.6158 15.5966 28.0945 15.762 28.6646 15.762C29.6432 15.762 30.1858 15.1289 30.1858 15.1289L30.1369 15.4363C30.1184 15.5538 30.2083 15.659 30.3263 15.659H31.3158C31.4725 15.659 31.6061 15.5443 31.6306 15.388L32.225 11.603C32.2431 11.4865 32.1532 11.3807 32.0353 11.3807ZM30.5034 13.5331C30.398 14.1648 29.8989 14.589 29.2633 14.589C28.9448 14.589 28.6892 14.4859 28.5254 14.2908C28.3629 14.0971 28.3018 13.821 28.3529 13.5139C28.4524 12.8875 28.9586 12.4495 29.5845 12.4495C29.8967 12.4495 30.1502 12.5538 30.3175 12.7507C30.4856 12.9496 30.552 13.2271 30.5034 13.5331Z" fill="#179BD7"/>
<path d="M4.689 0.5H35.311C37.6216 0.5 39.5 2.38573 39.5 4.71852V21.2815C39.5 23.6143 37.6216 25.5 35.311 25.5H4.689C2.37843 25.5 0.5 23.6143 0.5 21.2815V4.71852C0.5 2.38573 2.37843 0.5 4.689 0.5Z" stroke="#D6DCE5"/>
</g>
</g>
<defs>
<filter id="filter0_dd_176_63" x="-7.684" y="-3.842" width="55.368" height="41.368" filterUnits="userSpaceOnUse" color-interpolation-filters="sRGB">
<feFlood flood-opacity="0" result="BackgroundImageFix"/>
<feColorMatrix in="SourceAlpha" type="matrix" values="0 0 0 0 0 0 0 0 0 0 0 0 0 0 0 0 0 0 127 0" result="hardAlpha"/>
<feOffset dy="0.3842"/>
<feGaussianBlur stdDeviation="1.921"/>
<feColorMatrix type="matrix" values="0 0 0 0 0.717647 0 0 0 0 0.717647 0 0 0 0 0.717647 0 0 0 0.08 0"/>
<feBlend mode="normal" in2="BackgroundImageFix" result="effect1_dropShadow_176_63"/>
<feColorMatrix in="SourceAlpha" type="matrix" values="0 0 0 0 0 0 0 0 0 0 0 0 0 0 0 0 0 0 127 0" result="hardAlpha"/>
<feOffset dy="3.842"/>
<feGaussianBlur stdDeviation="3.842"/>
<feColorMatrix type="matrix" values="0 0 0 0 0.717647 0 0 0 0 0.717647 0 0 0 0 0.717647 0 0 0 0.08 0"/>
<feBlend mode="normal" in2="effect1_dropShadow_176_63" result="effect2_dropShadow_176_63"/>
<feBlend mode="normal" in="SourceGraphic" in2="effect2_dropShadow_176_63" result="shape"/>
</filter>
<clipPath id="clip0_176_63">
<rect width="40" height="26" fill="white"/>
</clipPath>
</defs>
</svg>
