<svg width="122" height="18" viewBox="0 0 122 18" fill="none" xmlns="http://www.w3.org/2000/svg">
<path d="M1.80699 16.1528C3.01162 17.3493 5.42098 17.9476 9.03497 17.9476C12.5603 17.9476 14.9122 17.3537 16.0902 16.1659C17.2771 14.9782 17.8707 13.5458 17.8707 11.869C17.8707 10.3668 17.3967 9.31004 16.4489 8.69869C15.5012 8.08734 13.6189 7.53274 10.8021 7.03493L7.22798 6.41922C6.32448 6.262 5.87267 5.86462 5.87267 5.22707C5.87267 4.77293 6.16057 4.45851 6.73638 4.28384C7.31207 4.10043 8.01629 4.00874 8.84891 4.00874C9.58409 4.00874 10.2529 4.12226 10.8552 4.34935C11.4664 4.57641 11.772 5.22271 11.772 6.28821H17.8441C17.8441 4.57641 17.2284 3.10044 15.9972 1.86026C14.766 0.620087 12.4054 0 8.91538 0C5.41657 0 3.05593 0.585147 1.83356 1.75546C0.619999 2.91703 0.0133425 4.30567 0.0133425 5.92139C0.0133425 7.46725 0.500406 8.57641 1.47478 9.24891C2.45808 9.9214 4.30927 10.5153 7.02869 11.0306C8.52563 11.2576 9.71262 11.4585 10.5896 11.6332C11.4664 11.8079 11.9048 12.1703 11.9048 12.7205C11.9048 13.2096 11.6171 13.5371 11.0412 13.703C10.4654 13.8603 9.7835 13.9389 8.99506 13.9389C8.19794 13.9389 7.51147 13.8253 6.93566 13.5983C6.35985 13.3624 6.07207 12.7031 6.07207 11.6201H0C0 13.4367 0.602372 14.9476 1.80699 16.1528Z" fill="black"/>
<path d="M19.8724 0.157202V17.8428H25.9444V11.214H31.3254V17.8428H37.3975V0.157202H31.3254V7.17904H25.9444V0.157202H19.8724Z" fill="black"/>
<path fill-rule="evenodd" clip-rule="evenodd" d="M48.6919 18C45.0601 18 42.5977 17.2096 41.3044 15.6288C40.02 14.048 39.3778 11.8384 39.3778 9C39.3778 6.16157 40.02 3.95197 41.3044 2.37118C42.5977 0.790399 45.0601 0 48.6919 0C52.3235 0 54.7816 0.790399 56.0659 2.37118C57.3591 3.95197 58.0058 6.16157 58.0058 9C58.0058 11.8384 57.3591 14.048 56.0659 15.6288C54.7816 17.2096 52.3235 18 48.6919 18ZM48.6919 13.9651C49.7016 13.9651 50.4989 13.7336 51.0834 13.2707C51.668 12.7991 51.9603 11.3755 51.9603 9C51.9603 6.58078 51.668 5.14846 51.0834 4.70305C50.4989 4.25763 49.7016 4.03493 48.6919 4.03493C47.682 4.03493 46.8849 4.25763 46.3003 4.70305C45.7156 5.14846 45.4233 6.58078 45.4233 9C45.4233 11.3755 45.7156 12.7991 46.3003 13.2707C46.8849 13.7336 47.682 13.9651 48.6919 13.9651Z" fill="black"/>
<path fill-rule="evenodd" clip-rule="evenodd" d="M70.8015 0.157202H59.6806V17.8428H65.7526V13.5065H70.8015C73.2729 13.5065 74.8672 12.8603 75.5848 11.5677C76.311 10.2664 76.6742 8.68558 76.6742 6.82532C76.6742 4.98253 76.311 3.41048 75.5848 2.10917C74.8672 0.807854 73.2729 0.157202 70.8015 0.157202ZM68.9946 9.47162H65.7526V4.19214H68.9946C69.5792 4.19214 69.9999 4.36682 70.2568 4.71616C70.5225 5.0655 70.6554 5.76855 70.6554 6.82532C70.6554 7.89956 70.5225 8.61136 70.2568 8.9607C69.9999 9.30131 69.5792 9.47162 68.9946 9.47162Z" fill="black"/>
<path d="M93.0865 17.9476C89.437 17.9476 86.9879 17.1397 85.7389 15.524C84.49 13.9083 83.8655 11.7162 83.8655 8.94759C83.8655 6.17904 84.49 3.99563 85.7389 2.39737C86.9879 0.799134 89.4326 0 93.0732 0C96.7492 0 99.1452 0.772929 100.261 2.31877C101.386 3.85589 101.949 5.56331 101.949 7.44105H95.8102C95.8102 5.91266 95.5622 4.96506 95.0662 4.59826C94.579 4.22271 93.9014 4.03493 93.0333 4.03493C92.1475 4.03493 91.4211 4.26201 90.8543 4.71616C90.2874 5.16158 90.0039 6.57205 90.0039 8.94759C90.0039 11.3493 90.2874 12.7773 90.8543 13.2314C91.4211 13.6856 92.1475 13.9127 93.0333 13.9127C93.8926 13.9127 94.5701 13.7205 95.0662 13.3362C95.5622 12.952 95.8102 12.0131 95.8102 10.5197H101.949C101.949 12.3362 101.386 14.0306 100.261 15.6026C99.1452 17.1659 96.7536 17.9476 93.0865 17.9476Z" fill="black"/>
<path fill-rule="evenodd" clip-rule="evenodd" d="M105.299 15.6288C106.592 17.2096 109.054 18 112.686 18C116.318 18 118.776 17.2096 120.06 15.6288C121.353 14.048 122 11.8384 122 9C122 6.16157 121.353 3.95197 120.06 2.37118C118.776 0.790399 116.318 0 112.686 0C109.054 0 106.592 0.790399 105.299 2.37118C104.014 3.95197 103.372 6.16157 103.372 9C103.372 11.8384 104.014 14.048 105.299 15.6288ZM115.078 13.2707C114.493 13.7336 113.696 13.9651 112.686 13.9651C111.676 13.9651 110.879 13.7336 110.294 13.2707C109.71 12.7991 109.418 11.3755 109.418 9C109.418 6.58078 109.71 5.14846 110.294 4.70305C110.879 4.25763 111.676 4.03493 112.686 4.03493C113.696 4.03493 114.493 4.25763 115.078 4.70305C115.662 5.14846 115.954 6.58078 115.954 9C115.954 11.3755 115.662 12.7991 115.078 13.2707Z" fill="black"/>
<path d="M80.3019 17.8289C81.8249 17.8289 83.0595 16.6116 83.0595 15.1099C83.0595 13.6083 81.8249 12.391 80.3019 12.391C78.7789 12.391 77.5443 13.6083 77.5443 15.1099C77.5443 16.6116 78.7789 17.8289 80.3019 17.8289Z" fill="black"/>
</svg>
