<svg xmlns="http://www.w3.org/2000/svg" xmlns:xlink="http://www.w3.org/1999/xlink">
  <symbol id="close-ic" viewBox="0 0 20 20">
    <path d="M16.2882 14.9617C16.4644 15.1378 16.5633 15.3767 16.5633 15.6258C16.5633 15.8749 16.4644 16.1137 16.2882 16.2898C16.1121 16.466 15.8733 16.5649 15.6242 16.5649C15.3751 16.5649 15.1362 16.466 14.9601 16.2898L9.99997 11.3281L5.03825 16.2883C4.86213 16.4644 4.62326 16.5633 4.37418 16.5633C4.12511 16.5633 3.88624 16.4644 3.71012 16.2883C3.534 16.1122 3.43506 15.8733 3.43506 15.6242C3.43506 15.3751 3.534 15.1363 3.71012 14.9602L8.67184 10L3.71168 5.03828C3.53556 4.86216 3.43662 4.62329 3.43662 4.37422C3.43662 4.12515 3.53556 3.88628 3.71168 3.71016C3.8878 3.53404 4.12668 3.43509 4.37575 3.43509C4.62482 3.43509 4.86369 3.53404 5.03981 3.71016L9.99997 8.67188L14.9617 3.70938C15.1378 3.53326 15.3767 3.43431 15.6257 3.43431C15.8748 3.43431 16.1137 3.53326 16.2898 3.70938C16.4659 3.8855 16.5649 4.12437 16.5649 4.37344C16.5649 4.62251 16.4659 4.86138 16.2898 5.0375L11.3281 10L16.2882 14.9617Z"/>
  </symbol>

  <symbol id="burger-ic" viewBox="0 0 24 24">
    <path d="M21.375 12C21.375 12.2984 21.2565 12.5845 21.0455 12.7955C20.8345 13.0065 20.5484 13.125 20.25 13.125H3.75C3.45163 13.125 3.16548 13.0065 2.9545 12.7955C2.74353 12.5845 2.625 12.2984 2.625 12C2.625 11.7016 2.74353 11.4155 2.9545 11.2045C3.16548 10.9935 3.45163 10.875 3.75 10.875H20.25C20.5484 10.875 20.8345 10.9935 21.0455 11.2045C21.2565 11.4155 21.375 11.7016 21.375 12ZM3.75 7.125H20.25C20.5484 7.125 20.8345 7.00647 21.0455 6.7955C21.2565 6.58452 21.375 6.29837 21.375 6C21.375 5.70163 21.2565 5.41548 21.0455 5.2045C20.8345 4.99353 20.5484 4.875 20.25 4.875H3.75C3.45163 4.875 3.16548 4.99353 2.9545 5.2045C2.74353 5.41548 2.625 5.70163 2.625 6C2.625 6.29837 2.74353 6.58452 2.9545 6.7955C3.16548 7.00647 3.45163 7.125 3.75 7.125ZM20.25 16.875H3.75C3.45163 16.875 3.16548 16.9935 2.9545 17.2045C2.74353 17.4155 2.625 17.7016 2.625 18C2.625 18.2984 2.74353 18.5845 2.9545 18.7955C3.16548 19.0065 3.45163 19.125 3.75 19.125H20.25C20.5484 19.125 20.8345 19.0065 21.0455 18.7955C21.2565 18.5845 21.375 18.2984 21.375 18C21.375 17.7016 21.2565 17.4155 21.0455 17.2045C20.8345 16.9935 20.5484 16.875 20.25 16.875Z"/>
  </symbol>

  <symbol id="search-ic" viewBox="0 0 24 24">
    <path d="M21.7959 20.2041L17.3437 15.75C18.6787 14.0104 19.3019 11.8282 19.087 9.64607C18.8722 7.4639 17.8353 5.44516 16.1867 3.99937C14.5382 2.55357 12.4014 1.78899 10.2098 1.86071C8.01829 1.93244 5.93607 2.8351 4.38558 4.38559C2.83509 5.93608 1.93243 8.0183 1.8607 10.2098C1.78898 12.4014 2.55356 14.5382 3.99936 16.1867C5.44515 17.8353 7.46389 18.8722 9.64606 19.087C11.8282 19.3019 14.0104 18.6787 15.75 17.3438L20.2059 21.8006C20.3106 21.9053 20.4348 21.9883 20.5715 22.0449C20.7083 22.1016 20.8548 22.1307 21.0028 22.1307C21.1508 22.1307 21.2973 22.1016 21.4341 22.0449C21.5708 21.9883 21.695 21.9053 21.7997 21.8006C21.9043 21.696 21.9873 21.5717 22.044 21.435C22.1006 21.2983 22.1298 21.1517 22.1298 21.0037C22.1298 20.8558 22.1006 20.7092 22.044 20.5725C21.9873 20.4358 21.9043 20.3115 21.7997 20.2069L21.7959 20.2041ZM4.12499 10.5C4.12499 9.23915 4.49888 8.0066 5.19938 6.95824C5.89987 5.90988 6.89551 5.09278 8.06039 4.61027C9.22527 4.12776 10.5071 4.00151 11.7437 4.2475C12.9803 4.49348 14.1162 5.10064 15.0078 5.9922C15.8994 6.88376 16.5065 8.01967 16.7525 9.2563C16.9985 10.4929 16.8722 11.7747 16.3897 12.9396C15.9072 14.1045 15.0901 15.1001 14.0418 15.8006C12.9934 16.5011 11.7608 16.875 10.5 16.875C8.80977 16.8733 7.18927 16.2011 5.99411 15.0059C4.79894 13.8107 4.12673 12.1902 4.12499 10.5Z"/>
  </symbol>

  <symbol id="cart-ic" viewBox="0 0 24 24">
    <path d="M9.375 20.25C9.375 20.6208 9.26503 20.9834 9.059 21.2917C8.85298 21.6 8.56014 21.8404 8.21753 21.9823C7.87492 22.1242 7.49792 22.1613 7.1342 22.089C6.77049 22.0166 6.4364 21.838 6.17417 21.5758C5.91195 21.3136 5.73337 20.9795 5.66103 20.6158C5.58868 20.2521 5.62581 19.8751 5.76773 19.5325C5.90964 19.1899 6.14996 18.897 6.45831 18.691C6.76665 18.485 7.12916 18.375 7.5 18.375C7.99728 18.375 8.47419 18.5725 8.82582 18.9242C9.17745 19.2758 9.375 19.7527 9.375 20.25ZM17.25 18.375C16.8792 18.375 16.5166 18.485 16.2083 18.691C15.9 18.897 15.6596 19.1899 15.5177 19.5325C15.3758 19.8751 15.3387 20.2521 15.411 20.6158C15.4834 20.9795 15.662 21.3136 15.9242 21.5758C16.1864 21.838 16.5205 22.0166 16.8842 22.089C17.2479 22.1613 17.6249 22.1242 17.9675 21.9823C18.3101 21.8404 18.603 21.6 18.809 21.2917C19.015 20.9834 19.125 20.6208 19.125 20.25C19.125 19.7527 18.9275 19.2758 18.5758 18.9242C18.2242 18.5725 17.7473 18.375 17.25 18.375ZM22.0753 7.08094L19.5169 15.3966C19.3535 15.9343 19.0211 16.4051 18.569 16.739C18.1169 17.0729 17.5692 17.2521 17.0072 17.25H7.77469C7.2046 17.2482 6.65046 17.0616 6.1953 16.7183C5.74015 16.3751 5.40848 15.8936 5.25 15.3459L2.04469 4.125H1.125C0.826631 4.125 0.540483 4.00647 0.329505 3.7955C0.118526 3.58452 0 3.29837 0 3C0 2.70163 0.118526 2.41548 0.329505 2.2045C0.540483 1.99353 0.826631 1.875 1.125 1.875H2.32687C2.73407 1.87626 3.12988 2.00951 3.45493 2.25478C3.77998 2.50004 4.01674 2.84409 4.12969 3.23531L4.81312 5.625H21C21.1761 5.62499 21.3497 5.6663 21.5069 5.74561C21.664 5.82492 21.8004 5.94001 21.905 6.08164C22.0096 6.22326 22.0795 6.38746 22.1091 6.56102C22.1387 6.73458 22.1271 6.91266 22.0753 7.08094ZM19.4766 7.875H5.45531L7.41375 14.7281C7.43617 14.8065 7.48354 14.8755 7.54867 14.9245C7.6138 14.9736 7.69315 15.0001 7.77469 15H17.0072C17.0875 15.0002 17.1656 14.9746 17.2303 14.927C17.2949 14.8794 17.3426 14.8123 17.3662 14.7356L19.4766 7.875Z"/>
  </symbol>

  <symbol id="user-accaunt-ic" viewBox="0 0 24 24">
    <path d="M12 1.875C9.99747 1.875 8.0399 2.46882 6.37486 3.58137C4.70981 4.69392 3.41206 6.27523 2.64572 8.12533C1.87939 9.97543 1.67888 12.0112 2.06955 13.9753C2.46023 15.9393 3.42454 17.7435 4.84055 19.1595C6.25656 20.5755 8.06066 21.5398 10.0247 21.9305C11.9888 22.3211 14.0246 22.1206 15.8747 21.3543C17.7248 20.5879 19.3061 19.2902 20.4186 17.6251C21.5312 15.9601 22.125 14.0025 22.125 12C22.122 9.3156 21.0543 6.74199 19.1562 4.84383C17.258 2.94567 14.6844 1.87798 12 1.875ZM7.45969 18.4284C7.98195 17.7143 8.66528 17.1335 9.45418 16.7331C10.2431 16.3327 11.1153 16.124 12 16.124C12.8847 16.124 13.7569 16.3327 14.5458 16.7331C15.3347 17.1335 16.0181 17.7143 16.5403 18.4284C15.2134 19.3695 13.6268 19.875 12 19.875C10.3732 19.875 8.78665 19.3695 7.45969 18.4284ZM9.375 11.25C9.375 10.7308 9.52896 10.2233 9.8174 9.79163C10.1058 9.35995 10.5158 9.0235 10.9955 8.82482C11.4751 8.62614 12.0029 8.57415 12.5121 8.67544C13.0213 8.77672 13.489 9.02673 13.8562 9.39384C14.2233 9.76096 14.4733 10.2287 14.5746 10.7379C14.6759 11.2471 14.6239 11.7749 14.4252 12.2545C14.2265 12.7342 13.8901 13.1442 13.4584 13.4326C13.0267 13.721 12.5192 13.875 12 13.875C11.3038 13.875 10.6361 13.5984 10.1438 13.1062C9.65157 12.6139 9.375 11.9462 9.375 11.25ZM18.1875 16.8694C17.4583 15.9419 16.5289 15.1914 15.4688 14.6737C16.1444 13.9896 16.6026 13.1208 16.7858 12.1769C16.9689 11.2329 16.8688 10.2558 16.498 9.36861C16.1273 8.4814 15.5024 7.72364 14.702 7.19068C13.9017 6.65771 12.9616 6.37334 12 6.37334C11.0384 6.37334 10.0983 6.65771 9.29797 7.19068C8.49762 7.72364 7.87275 8.4814 7.50198 9.36861C7.13121 10.2558 7.0311 11.2329 7.21424 12.1769C7.39739 13.1208 7.85561 13.9896 8.53125 14.6737C7.4711 15.1914 6.54168 15.9419 5.8125 16.8694C4.89661 15.7083 4.32614 14.3129 4.1664 12.8427C4.00665 11.3725 4.2641 9.88711 4.90925 8.55644C5.55441 7.22578 6.5612 6.10366 7.81439 5.31855C9.06757 4.53343 10.5165 4.11703 11.9953 4.11703C13.4741 4.11703 14.9231 4.53343 16.1762 5.31855C17.4294 6.10366 18.4362 7.22578 19.0814 8.55644C19.7265 9.88711 19.984 11.3725 19.8242 12.8427C19.6645 14.3129 19.094 15.7083 18.1781 16.8694H18.1875Z"/>
  </symbol>

  <symbol id="x-ic" viewBox="0 0 26 26">
    <path fill-rule="evenodd" clip-rule="evenodd" d="M15.2667 18H19L14.2305 12.2305L18.2889 8H16.4222L13.3845 11.2071L10.7333 8H7L11.5257 13.4746L7.17778 18H9.04444L12.3851 14.5142L15.2667 18ZM15.7948 17.0164H16.8456L10.2052 8.98361H9.15436L15.7948 17.0164Z" />
  </symbol>

  <symbol id="yt-ic" viewBox="0 0 26 26">
    <path d="M19.8605 10.1577C19.8605 10.1577 19.7238 9.17745 19.3027 8.74701C18.7695 8.18051 18.1734 8.17773 17.9 8.1444C15.9422 8 13.0027 8 13.0027 8H12.9973C12.9973 8 10.0578 8 8.1 8.1444C7.82656 8.17773 7.23047 8.18051 6.69727 8.74701C6.27617 9.17745 6.14219 10.1577 6.14219 10.1577C6.14219 10.1577 6 11.3102 6 12.4599V13.5374C6 14.687 6.13945 15.8395 6.13945 15.8395C6.13945 15.8395 6.27617 16.8198 6.69453 17.2502C7.22773 17.8167 7.92773 17.7973 8.23945 17.8584C9.36055 17.9667 13 18 13 18C13 18 15.9422 17.9944 17.9 17.8528C18.1734 17.8195 18.7695 17.8167 19.3027 17.2502C19.7238 16.8198 19.8605 15.8395 19.8605 15.8395C19.8605 15.8395 20 14.6898 20 13.5374V12.4599C20 11.3102 19.8605 10.1577 19.8605 10.1577ZM11.5535 14.8453V10.8492L15.3352 12.8542L11.5535 14.8453Z" />
  </symbol>

  <symbol id="vk-ic" viewBox="0 0 26 26">
    <path fill-rule="evenodd" clip-rule="evenodd" d="M6 9C6.10833 14.2 8.70833 17.325 13.2667 17.325H13.525V14.35C15.2 14.5167 16.4666 15.7417 16.9749 17.325H19.3417C18.6917 14.9583 16.9832 13.65 15.9166 13.15C16.9832 12.5333 18.4832 11.0333 18.8416 9H16.6915C16.2249 10.65 14.8417 12.15 13.525 12.2917V9H11.375V14.7667C10.0416 14.4333 8.35832 12.8167 8.28332 9H6Z" />
  </symbol>

  <symbol id="github-ic" viewBox="0 0 26 26">
    <path fill-rule="evenodd" clip-rule="evenodd" d="M13 6C9.12083 6 6 9.19848 6 13.1742C6 16.3428 8.0125 19.0331 10.7833 19.9896C11.1333 20.0494 11.25 19.8402 11.25 19.6309C11.25 19.4516 11.25 19.0032 11.25 18.4053C9.29583 18.8537 8.8875 17.4488 8.8875 17.4488C8.56667 16.6118 8.1 16.4025 8.1 16.4025C7.45833 15.9542 8.15833 15.9542 8.15833 15.9542C8.85833 16.0139 9.2375 16.7015 9.2375 16.7015C9.85 17.8075 10.8708 17.4787 11.2792 17.2993C11.3375 16.821 11.5125 16.5221 11.7167 16.3428C10.1708 16.1634 8.5375 15.5357 8.5375 12.7856C8.5375 12.0084 8.8 11.3507 9.26667 10.8725C9.20833 10.6931 8.94583 9.97569 9.325 8.95935C9.325 8.95935 9.90833 8.77999 11.25 9.70665C11.8042 9.55719 12.4167 9.46752 13 9.46752C13.5833 9.46752 14.1958 9.55719 14.75 9.70665C16.0917 8.77999 16.675 8.95935 16.675 8.95935C17.0542 9.94579 16.8208 10.6632 16.7333 10.8725C17.1708 11.3806 17.4625 12.0084 17.4625 12.7856C17.4625 15.5357 15.8292 16.1335 14.2542 16.3129C14.5167 16.5221 14.7208 16.9705 14.7208 17.6281C14.7208 18.5847 14.7208 19.3619 14.7208 19.601C14.7208 19.7804 14.8375 20.0195 15.2167 19.9597C17.9875 19.0331 20 16.3428 20 13.1742C20 9.19848 16.8792 6 13 6Z" />
  </symbol>

  <symbol id="arrow-right-ic" viewBox="0 0 24 24">
    <path d="M14.2959 4.4541L21.0459 11.2041C21.1508 11.3086 21.234 11.4328 21.2908 11.5696C21.3476 11.7063 21.3768 11.8529 21.3768 12.001C21.3768 12.149 21.3476 12.2957 21.2908 12.4324C21.234 12.5691 21.1508 12.6933 21.0459 12.7979L14.2959 19.5479C14.0846 19.7592 13.7979 19.8779 13.4991 19.8779C13.2002 19.8779 12.9135 19.7592 12.7022 19.5479C12.4908 19.3365 12.3721 19.0499 12.3721 18.751C12.3721 18.4521 12.4908 18.1654 12.7022 17.9541L17.5313 13.125L3.75 13.125C3.45163 13.125 3.16548 13.0065 2.9545 12.7955C2.74353 12.5846 2.625 12.2984 2.625 12C2.625 11.7017 2.74353 11.4155 2.95451 11.2045C3.16548 10.9936 3.45163 10.875 3.75 10.875L17.5313 10.875L12.7013 6.04598C12.4899 5.83463 12.3712 5.54799 12.3712 5.2491C12.3712 4.95022 12.4899 4.66357 12.7013 4.45223C12.9126 4.24088 13.1992 4.12215 13.4981 4.12215C13.797 4.12215 14.0837 4.24088 14.295 4.45223L14.2959 4.4541Z" />
  </symbol>

  <symbol id="arrow-left-ic" viewBox="0 0 24 24">
    <path d="M9.70406 4.4541L2.95406 11.2041C2.84918 11.3086 2.76597 11.4328 2.70919 11.5696C2.6524 11.7063 2.62317 11.8529 2.62317 12.001C2.62317 12.149 2.6524 12.2957 2.70919 12.4324C2.76597 12.5691 2.84918 12.6933 2.95406 12.7979L9.70406 19.5479C9.91541 19.7592 10.2021 19.8779 10.5009 19.8779C10.7998 19.8779 11.0865 19.7592 11.2978 19.5479C11.5092 19.3365 11.6279 19.0499 11.6279 18.751C11.6279 18.4521 11.5092 18.1654 11.2978 17.9541L6.46875 13.125L20.25 13.125C20.5484 13.125 20.8345 13.0065 21.0455 12.7955C21.2565 12.5846 21.375 12.2984 21.375 12C21.375 11.7017 21.2565 11.4155 21.0455 11.2045C20.8345 10.9936 20.5484 10.875 20.25 10.875L6.46875 10.875L11.2987 6.04598C11.5101 5.83463 11.6288 5.54799 11.6288 5.2491C11.6288 4.95022 11.5101 4.66357 11.2987 4.45223C11.0874 4.24088 10.8008 4.12215 10.5019 4.12215C10.203 4.12215 9.91634 4.24088 9.705 4.45223L9.70406 4.4541Z" />
  </symbol>

</svg>
