<svg width="40" height="26" viewBox="0 0 40 26" fill="none" xmlns="http://www.w3.org/2000/svg">
<g clip-path="url(#clip0_176_69)">
<g filter="url(#filter0_dd_176_69)">
<path d="M35.311 0.0966797H4.689C2.15219 0.0966797 0.0957031 2.16612 0.0957031 4.7189V21.2819C0.0957031 23.8347 2.15219 25.9041 4.689 25.9041H35.311C37.8478 25.9041 39.9043 23.8347 39.9043 21.2819V4.7189C39.9043 2.16612 37.8478 0.0966797 35.311 0.0966797Z" fill="white"/>
<path d="M19.7567 8.79409L17.8998 17.5284H15.6546L17.5116 8.79409H19.7567ZM29.2033 14.4338L30.3854 11.1538L31.0656 14.4338H29.2033ZM31.7085 17.5284H33.7853L31.973 8.79409H30.056C29.6253 8.79409 29.2618 9.04623 29.1 9.43493L25.7314 17.5284H28.0894L28.5574 16.2241H31.4381L31.7085 17.5284ZM25.8485 14.6765C25.8581 12.3713 22.6805 12.2444 22.7024 11.2147C22.709 10.9009 23.006 10.568 23.6546 10.4826C23.9769 10.4403 24.8628 10.408 25.8688 10.8738L26.2628 9.02157C25.7224 8.82416 25.0271 8.63428 24.1623 8.63428C21.9431 8.63428 20.3811 9.82161 20.3679 11.5218C20.3539 12.7791 21.483 13.4807 22.3338 13.8986C23.2084 14.3268 23.5024 14.6011 23.4986 14.984C23.4928 15.5703 22.8008 15.8286 22.1552 15.8388C21.0262 15.8568 20.3709 15.5322 19.8486 15.2873L19.4419 17.2011C19.9663 17.4435 20.9346 17.6541 21.9393 17.665C24.2977 17.665 25.8408 16.4923 25.8485 14.6765ZM16.5482 8.79409L12.9105 17.5284H10.5366L8.74657 10.5578C8.63778 10.1285 8.54323 9.9715 8.21276 9.79043C7.67356 9.49598 6.78208 9.21927 5.9978 9.04784L6.0513 8.79409H9.87178C10.3586 8.79409 10.7967 9.12032 10.9072 9.68446L11.8528 14.7391L14.1892 8.79409H16.5482Z" fill="#1434CB"/>
<path d="M4.689 0.5H35.311C37.6216 0.5 39.5 2.38573 39.5 4.71852V21.2815C39.5 23.6143 37.6216 25.5 35.311 25.5H4.689C2.37843 25.5 0.5 23.6143 0.5 21.2815V4.71852C0.5 2.38573 2.37843 0.5 4.689 0.5Z" stroke="#D6DCE5"/>
</g>
</g>
<defs>
<filter id="filter0_dd_176_69" x="-7.684" y="-3.842" width="55.368" height="41.368" filterUnits="userSpaceOnUse" color-interpolation-filters="sRGB">
<feFlood flood-opacity="0" result="BackgroundImageFix"/>
<feColorMatrix in="SourceAlpha" type="matrix" values="0 0 0 0 0 0 0 0 0 0 0 0 0 0 0 0 0 0 127 0" result="hardAlpha"/>
<feOffset dy="0.3842"/>
<feGaussianBlur stdDeviation="1.921"/>
<feColorMatrix type="matrix" values="0 0 0 0 0.717647 0 0 0 0 0.717647 0 0 0 0 0.717647 0 0 0 0.08 0"/>
<feBlend mode="normal" in2="BackgroundImageFix" result="effect1_dropShadow_176_69"/>
<feColorMatrix in="SourceAlpha" type="matrix" values="0 0 0 0 0 0 0 0 0 0 0 0 0 0 0 0 0 0 127 0" result="hardAlpha"/>
<feOffset dy="3.842"/>
<feGaussianBlur stdDeviation="3.842"/>
<feColorMatrix type="matrix" values="0 0 0 0 0.717647 0 0 0 0 0.717647 0 0 0 0 0.717647 0 0 0 0.08 0"/>
<feBlend mode="normal" in2="effect1_dropShadow_176_69" result="effect2_dropShadow_176_69"/>
<feBlend mode="normal" in="SourceGraphic" in2="effect2_dropShadow_176_69" result="shape"/>
</filter>
<clipPath id="clip0_176_69">
<rect width="40" height="26" fill="white"/>
</clipPath>
</defs>
</svg>
